HIERARCHY
ROOT Hips
{
	OFFSET 0.000000 0.000000 0.000000
	CHANNELS 6 Xposition Yposition Zposition Xrotation Yrotation Zrotation
	JOINT LeftUpLeg_virtual
	{
		OFFSET 0.000000 0.000000 0.000000
		CHANNELS 3 Xrotation Yrotation Zrotation
		JOINT LeftUpLeg
		{
			OFFSET 10.205400 -3.823500 0.155100
			CHANNELS 3 Xrotation Yrotation Zrotation
			JOINT LeftLeg
			{
				OFFSET 0.708757 -12.982077 0.567790
				CHANNELS 3 Xrotation Yrotation Zrotation
				JOINT LeftFoot
				{
					OFFSET -0.708756 -10.717838 -2.184338
					CHANNELS 3 Xrotation Yrotation Zrotation
					JOINT LeftToeBase
					{
						OFFSET 0.108149 -7.191104 7.560241
						CHANNELS 3 Xrotation Yrotation Zrotation
						JOINT LeftToe_End
						{
							OFFSET 0.070230 0.081724 4.490308
							CHANNELS 3 Xrotation Yrotation Zrotation
							End Site
							{
								OFFSET 0 0 0
							}
						}
					}
				}
			}
		}
	}
	JOINT RightUpLeg_virtual
	{
		OFFSET 0.000000 0.000000 0.000000
		CHANNELS 3 Xrotation Yrotation Zrotation
		JOINT RightUpLeg
		{
			OFFSET -10.205400 -3.823500 0.005500
			CHANNELS 3 Xrotation Yrotation Zrotation
			JOINT RightLeg
			{
				OFFSET -0.708756 -12.982134 0.610632
				CHANNELS 3 Xrotation Yrotation Zrotation
				JOINT RightFoot
				{
					OFFSET 0.708754 -10.717769 -1.945823
					CHANNELS 3 Xrotation Yrotation Zrotation
					JOINT RightToeBase
					{
						OFFSET -0.108140 -7.191069 7.372968
						CHANNELS 3 Xrotation Yrotation Zrotation
						JOINT RightToe_End
						{
							OFFSET -0.070227 0.081735 4.479403
							CHANNELS 3 Xrotation Yrotation Zrotation
							End Site
							{
								OFFSET 0 0 0
							}
						}
					}
				}
			}
		}
	}
	JOINT Spine_virtual
	{
		OFFSET 0.000000 0.000000 0.000000
		CHANNELS 3 Xrotation Yrotation Zrotation
		JOINT Spine
		{
			OFFSET 0.000000 6.876099 0.125700
			CHANNELS 3 Xrotation Yrotation Zrotation
			JOINT Spine1
			{
				OFFSET 0.000000 5.730043 0.104720
				CHANNELS 3 Xrotation Yrotation Zrotation
				JOINT Spine1_split
				{
					OFFSET 0.000000 5.730043 0.104720
					CHANNELS 3 Xrotation Yrotation Zrotation
					JOINT Spine2
					{
						OFFSET 0.000000 5.730043 0.104720
						CHANNELS 3 Xrotation Yrotation Zrotation
						JOINT Neck_virtual
						{
							OFFSET 0.000000 0.000000 0.000000
							CHANNELS 3 Xrotation Yrotation Zrotation
							JOINT Neck
							{
								OFFSET 0.000000 10.314075 0.188496
								CHANNELS 3 Xrotation Yrotation Zrotation
								JOINT Head
								{
									OFFSET 0.000000 7.643700 -2.377400
									CHANNELS 3 Xrotation Yrotation Zrotation
									JOINT HeadTop_End
									{
										OFFSET 0.000000 43.788605 -13.619600
										CHANNELS 3 Xrotation Yrotation Zrotation
										End Site
										{
											OFFSET 0 0 0
										}
									}
								}
							}
						}
						JOINT LeftShoulder_virtual
						{
							OFFSET 0.000000 0.000000 0.000000
							CHANNELS 3 Xrotation Yrotation Zrotation
							JOINT LeftShoulder
							{
								OFFSET 2.196100 4.412489 0.087492
								CHANNELS 3 Xrotation Yrotation Zrotation
								JOINT LeftShoulder_split
								{
									OFFSET 2.196100 4.412489 0.087492
									CHANNELS 3 Xrotation Yrotation Zrotation
									JOINT LeftArm
									{
										OFFSET 8.771219 -2.981674 -0.026999
										CHANNELS 3 Xrotation Yrotation Zrotation
										JOINT LeftForeArm
										{
											OFFSET 8.512804 0.000000 -0.000000
											CHANNELS 3 Xrotation Yrotation Zrotation
											JOINT LeftHand
											{
												OFFSET 18.484802 0.000000 -0.000000
												CHANNELS 3 Xrotation Yrotation Zrotation
												End Site
												{
													OFFSET 0 0 0
												}
											}
										}
									}
								}
							}
						}
						JOINT RightShoulder_virtual
						{
							OFFSET 0.000000 0.000000 0.000000
							CHANNELS 3 Xrotation Yrotation Zrotation
							JOINT RightShoulder
							{
								OFFSET -2.196100 4.412496 0.070690
								CHANNELS 3 Xrotation Yrotation Zrotation
								JOINT RightShoulder_split
								{
									OFFSET -2.196100 4.412496 0.070690
									CHANNELS 3 Xrotation Yrotation Zrotation
									JOINT RightArm
									{
										OFFSET -8.771282 -2.981682 -0.094208
										CHANNELS 3 Xrotation Yrotation Zrotation
										JOINT RightForeArm
										{
											OFFSET -8.494598 0.000000 0.000000
											CHANNELS 3 Xrotation Yrotation Zrotation
											JOINT RightHand
											{
												OFFSET -18.483803 0.000000 0.000001
												CHANNELS 3 Xrotation Yrotation Zrotation
												End Site
												{
													OFFSET 0 0 0
												}
											}
										}
									}
								}
							}
						}
					}
				}
			}
		}
	}
}
MOTION
Frames: 9
Frame Time: 0.03333333
1.715047 29.982426 50.863480 0.000000 0.000000 0.000000 3.824508 -3.119530 -2.420120 -54.332939 0.553497 7.632059 38.832050 -1.836619 3.774236 -1.413700 -11.933640 -4.178107 2.264143 -2.558129 -1.099571 0.000000 0.000000 0.000000 4.225145 1.168694 -2.036096 -11.964790 2.241383 8.713959 43.446212 1.815309 -2.969244 -37.584926 -1.614594 -1.098281 2.560432 -0.370256 -1.251165 0.000000 0.000000 0.000000 1.671222 1.315267 -1.475494 17.485400 2.764103 -0.904274 18.983302 6.842969 3.728740 0.948679 -4.125647 1.907919 0.000000 0.000000 0.000000 17.796843 7.826982 2.848188 -46.579397 20.693260 -27.845141 40.077942 -39.782645 40.933453 0.000000 0.000000 0.000000 19.474852 7.177291 3.410554 -2.092624 -12.731528 -7.625271 -3.999033 3.508493 -5.992644 -11.364757 -1.277527 -57.627303 -1.670079 -69.062092 -3.852123 0.000000 0.000000 0.000000 18.084068 8.027868 3.468809 0.104126 19.731687 6.893198 -2.699440 4.928653 8.775086 -56.082943 6.102279 31.801327 -170.262532 81.721506 169.654645 0.000000 0.000000 0.000000 
1.590532 30.140667 50.212944 0.000000 0.000000 0.000000 1.668646 -3.004511 -3.191275 -51.614759 -0.179598 9.839903 38.572025 0.835869 3.721511 -5.077221 -9.398357 -6.496029 0.211983 -2.777136 -0.033964 0.000000 0.000000 0.000000 2.406912 0.529210 -2.732059 -12.424520 1.785692 9.305358 43.219286 2.592131 -2.997653 -34.948579 -1.244084 -0.993688 2.415359 -0.372742 -1.667214 0.000000 0.000000 0.000000 -0.281307 1.436460 -2.473853 17.428382 2.698758 -0.428989 18.166900 6.549871 3.722068 0.831600 -4.245166 1.750899 0.000000 0.000000 0.000000 16.995319 7.639590 2.796283 -47.226325 19.475622 -27.027484 40.608746 -38.312969 40.469059 0.000000 0.000000 0.000000 18.639518 6.938067 3.391790 -1.638291 -11.705529 -7.054140 -3.833098 3.598527 -5.897152 -13.908316 -1.231254 -59.510639 -0.395202 -63.465612 -2.796705 0.000000 0.000000 0.000000 17.259961 7.771526 3.493251 -0.008184 17.367959 8.703626 -2.066495 4.699498 8.405802 -59.253708 7.486312 30.992578 -169.811986 82.281766 169.400822 0.000000 0.000000 0.000000 
1.472540 30.224607 49.595745 0.000000 0.000000 0.000000 -0.238430 -2.883002 -3.833845 -48.948380 -0.583218 12.000230 40.094016 2.558438 3.512679 -8.126745 -7.570365 -9.630456 -2.384785 -3.063901 1.757248 0.000000 0.000000 0.000000 0.888620 0.124281 -3.345855 -12.963259 1.739551 9.896887 43.906331 3.324056 -3.156144 -32.995076 -1.145995 -1.169107 2.354254 -0.461334 -1.921244 0.000000 0.000000 0.000000 -2.022973 1.718786 -3.393508 17.308160 2.631068 0.147060 17.391507 6.129358 3.640534 0.734224 -4.613534 1.532967 0.000000 0.000000 0.000000 16.251771 7.284146 2.713902 -47.777952 18.065989 -25.949151 40.596862 -36.953318 39.228078 0.000000 0.000000 0.000000 17.882917 6.562680 3.304463 -1.168015 -10.733504 -6.599970 -3.734699 3.741505 -5.743966 -16.415929 -0.833839 -61.024414 0.648832 -58.064893 -1.970149 0.000000 0.000000 0.000000 16.574999 7.367833 3.416287 -0.004552 15.035533 10.414450 -1.526653 4.593535 8.187513 -63.757951 8.227370 30.369097 -170.104823 82.501814 169.859524 0.000000 0.000000 0.000000 
1.382358 30.225023 48.967644 0.000000 0.000000 0.000000 -1.731166 -2.741339 -4.409115 -46.017652 -0.673384 13.834377 43.579868 3.722200 2.978153 -10.997159 -6.125375 -12.247224 -4.383996 -3.351573 3.475158 0.000000 0.000000 0.000000 -0.384141 -0.042178 -3.962381 -13.671763 1.866196 10.624019 45.385723 3.930554 -3.325098 -31.712292 -1.345405 -1.619010 2.315591 -0.619154 -1.880448 0.000000 0.000000 0.000000 -3.406541 2.136000 -4.246069 17.051608 2.542872 0.845394 16.620794 5.575638 3.498841 0.526081 -4.903827 1.333883 0.000000 0.000000 0.000000 15.533501 6.756463 2.600779 -48.084156 16.449892 -24.668656 40.133724 -35.740345 37.387332 0.000000 0.000000 0.000000 17.160533 6.045446 3.170001 -0.698235 -9.818502 -6.255392 -3.640016 3.881934 -5.573765 -18.360078 -0.128204 -62.119450 1.478735 -53.564099 -1.348259 0.000000 0.000000 0.000000 15.967789 6.804955 3.252337 0.125938 12.774315 11.781115 -0.984539 4.597237 8.014834 -69.349486 8.128419 29.948723 -171.687050 81.794316 171.557495 0.000000 0.000000 0.000000 
1.340907 30.160671 48.309227 0.000000 0.000000 0.000000 -2.772159 -2.434470 -5.056603 -42.738372 -0.842051 15.283392 48.791774 4.793157 2.011402 -13.434702 -4.879711 -13.305812 -5.776583 -3.434668 4.318499 0.000000 0.000000 0.000000 -1.444458 0.108897 -4.635698 -14.460859 2.006739 11.463748 47.162600 4.415272 -3.439527 -30.994312 -1.722498 -2.187012 2.438845 -0.778359 -1.559199 0.000000 0.000000 0.000000 -4.424999 2.727748 -5.068098 16.610919 2.379490 1.658582 15.817706 4.911577 3.332781 0.344887 -5.083479 1.161885 0.000000 0.000000 0.000000 14.814137 6.091866 2.470304 -48.012586 14.652520 -23.277821 39.317817 -34.793995 35.247143 0.000000 0.000000 0.000000 16.432899 5.408545 3.020585 -0.257243 -9.052183 -5.975353 -3.477834 3.976533 -5.420487 -19.452638 0.825281 -62.821860 2.161397 -50.486272 -0.857299 0.000000 0.000000 0.000000 15.355633 6.094275 3.046712 0.360923 10.608099 12.614954 -0.234643 4.580009 7.894708 -75.890560 7.266662 29.681349 -173.898734 79.784328 173.829831 0.000000 0.000000 0.000000 
1.349539 30.051796 47.572403 0.000000 0.000000 0.000000 -3.496571 -2.135532 -5.807734 -39.604124 -1.676479 16.805663 55.772374 5.535478 0.887871 -13.780386 -3.983875 -13.138386 -7.369112 -3.200350 3.580939 0.000000 0.000000 0.000000 -2.260979 0.564120 -5.400869 -15.304183 2.036538 12.363793 48.784712 4.779041 -3.504014 -30.640615 -2.152332 -2.763633 2.649762 -0.891261 -1.064344 0.000000 0.000000 0.000000 -5.050084 3.379967 -5.892968 15.983607 2.113104 2.551929 14.957435 4.161724 3.178451 0.136512 -5.022930 1.054739 0.000000 0.000000 0.000000 14.075727 5.342573 2.344654 -47.525904 12.725623 -21.913383 38.210151 -34.285238 33.111500 0.000000 0.000000 0.000000 15.648341 4.697759 2.903173 0.129371 -8.491800 -5.708570 -3.173245 3.948799 -5.353361 -19.529748 1.884620 -63.170610 2.700695 -49.154228 -0.462374 0.000000 0.000000 0.000000 14.673068 5.290541 2.847089 0.663674 8.557401 12.762293 0.707321 4.601748 7.743519 -83.057102 5.938376 29.449539 -175.522338 76.703216 175.464814 0.000000 0.000000 0.000000 
1.401240 29.911150 46.862766 0.000000 0.000000 0.000000 -4.036101 -2.128350 -6.606049 -36.683676 -3.143030 18.656435 63.774795 5.812870 -0.128542 -10.974608 -3.509046 -12.275014 -9.895502 -2.607083 1.127201 0.000000 0.000000 0.000000 -2.829541 1.123047 -6.246356 -16.187458 1.921447 13.183865 49.804913 5.003692 -3.495707 -30.260999 -2.567328 -3.103218 2.549383 -0.946314 -0.581470 0.000000 0.000000 0.000000 -5.336945 4.018048 -6.733387 15.208039 1.739656 3.453066 14.067057 3.371056 3.066967 0.058059 -4.746500 1.098642 0.000000 0.000000 0.000000 13.290839 4.573799 2.253863 -46.628271 10.808988 -20.670464 36.925464 -34.283342 31.230456 0.000000 0.000000 0.000000 14.816753 3.950482 2.844281 0.445713 -8.238572 -5.429509 -2.738689 3.883822 -5.363561 -18.682439 2.930581 -63.150857 3.168619 -49.436622 -0.093441 0.000000 0.000000 0.000000 13.894035 4.455122 2.703771 0.973383 6.702595 12.240111 1.526951 4.481781 7.619214 -90.471265 4.733597 29.073646 -176.324025 73.429383 176.243742 0.000000 0.000000 0.000000 
1.460461 29.761326 46.122456 0.000000 0.000000 0.000000 -4.568959 -2.477256 -7.400875 -33.273861 -4.437609 20.765829 70.840953 5.979011 -0.689310 -6.588984 -3.259446 -10.420487 -14.217537 -1.670408 -2.305078 0.000000 0.000000 0.000000 -3.213362 1.605809 -7.061420 -17.172110 1.688396 13.759567 50.082570 5.161533 -3.480033 -29.396185 -2.879775 -3.076627 1.945091 -0.953712 -0.300032 0.000000 0.000000 0.000000 -5.413896 4.534125 -7.546008 14.377987 1.261290 4.261969 13.165213 2.582143 3.011769 0.195790 -4.551586 1.137216 0.000000 0.000000 0.000000 12.471081 3.840290 2.208078 -45.344772 8.976522 -19.629955 35.595258 -34.829361 29.748838 0.000000 0.000000 0.000000 13.946350 3.210919 2.845144 0.681205 -8.366550 -5.135226 -2.301912 3.880393 -5.459864 -17.117147 3.970295 -62.785018 3.552222 -50.735980 0.268643 0.000000 0.000000 0.000000 13.055148 3.659203 2.641433 1.248890 5.044436 11.173403 2.069228 4.325931 7.421417 -97.495124 4.075056 28.519516 -176.469398 71.093629 176.333764 0.000000 0.000000 0.000000 
1.522280 29.631247 45.369827 0.000000 0.000000 0.000000 -5.128527 -3.015797 -8.075634 -28.561268 -4.590291 22.553056 75.374423 6.414281 -0.724780 -3.913101 -2.993004 -7.406678 -19.978119 -0.481979 -5.737475 0.000000 0.000000 0.000000 -3.517501 1.900503 -7.723347 -18.413848 1.360282 14.062575 49.690787 5.255462 -3.446481 -27.778598 -3.089683 -2.700970 1.038947 -0.937676 -0.300040 0.000000 0.000000 0.000000 -5.431707 4.835450 -8.236676 13.596010 0.675084 4.883215 12.280571 1.830982 3.000134 0.432780 -4.345529 1.180995 0.000000 0.000000 0.000000 11.617610 3.169799 2.202344 -43.751487 7.335563 -18.832262 34.391068 -35.784283 28.671174 0.000000 0.000000 0.000000 13.077250 2.495358 2.881963 0.838205 -8.811146 -4.879481 -2.040305 3.990238 -5.645182 -15.127134 5.044559 -62.097826 3.752893 -52.483256 0.579775 0.000000 0.000000 0.000000 12.202111 2.940385 2.656183 1.470126 3.588048 9.764578 2.137594 4.114162 7.182419 -103.293149 4.161887 27.751098 -176.186287 70.467226 175.963049 0.000000 0.000000 0.000000 
